<svg width="38" height="38" viewBox="0 0 38 38" fill="none" xmlns="http://www.w3.org/2000/svg">
<g clip-path="url(#clip0_2058_883)">
<rect width="38" height="38" rx="19" fill="white"/>
<path d="M18.525 3.8C20.9816 3.8 23.3375 4.77587 25.0746 6.51293C26.8116 8.24998 27.7875 10.6059 27.7875 13.0625C27.7875 15.5191 26.8116 17.875 25.0746 19.6121C23.3375 21.3491 20.9816 22.325 18.525 22.325C16.0684 22.325 13.7125 21.3491 11.9754 19.6121C10.2384 17.875 9.2625 15.5191 9.2625 13.0625C9.2625 10.6059 10.2384 8.24998 11.9754 6.51293C13.7125 4.77587 16.0684 3.8 18.525 3.8ZM18.525 26.9563C28.7601 26.9563 37.05 31.1012 37.05 36.2188V40.85H0V36.2188C0 31.1012 8.28994 26.9563 18.525 26.9563Z" fill="#256589"/>
</g>
<rect x="0.5" y="0.5" width="37" height="37" rx="18.5" stroke="white"/>
<defs>
<clipPath id="clip0_2058_883">
<rect width="38" height="38" rx="19" fill="white"/>
</clipPath>
</defs>
</svg>
